Plot: A supernatural shockumentary about a demonic presence in a young couple's home in London.

Cast: Giles Alderson ...
David O'Reilly
Francesca Fowler Francesca Fowler ...
Anna
Zoe Richards Zoe Richards ...
Kate
Nicholas Shaw Nicholas Shaw ...
Alex

Format;Avi

File Size:734mb

Video: ID : 0
Format : MPEG-4 Visual
Format profile : Advanced Simple@L5
Format settings, BVOP : Yes
Format settings, QPel : No
Format settings, GMC : No warppoints
Format settings, Matrix : Default (H.263)
Codec ID : XVID
Codec ID/Hint : XviD
Duration : 1h 19mn
Bit rate : 892 Kbps
Width : 720 pixels
Height : 304 pixels
Display aspect ratio : 2.35:1
Frame rate : 23.976 fps
Color space : YUV
Chroma subsampling : 4:2:0
Bit depth : 8 bits
Scan type : Progressive
Bits/(Pixel*Frame) : 0.170
Stream size : 510 MiB (69%)
Writing library : XviD 1.2.1 (UTC 2008-12-04)


Audio: ID : 1
Format : AC-3
Format/Info : Audio Coding 3
Mode extension : CM (complete main)
Codec ID : 2000
Duration : 1h 19mn
Bit rate mode : Constant
Bit rate : 384 Kbps
Channel(s) : 6 channels
Channel positions : Front: L C R, Side: L R, LFE
Sampling rate : 48.0 KHz
Bit depth : 16 bits
Stream size : 220 MiB (30%)
Alignment : Split accross interleaves
Interleave, duration : 42 ms (1.00 video frame)
Interleave, preload duration : 500 ms


Duration:1:19

Release Date:2010

Language:English

screens 
http://img684.imageshack.us/img684/5456/vlcsnap2010111103h21m18.png
 
http://img703.imageshack.us/img703/4931/vlcsnap2010111103h20m15.png 
http://img294.imageshack.us/img294/1193/vlcsnap2010111103h19m03.png